<?xml version="1.0" encoding="UTF-8"?>
<svg width="16px" height="16px" viewBox="0 0 16 16" version="1.1" xmlns="http://www.w3.org/2000/svg" xmlns:xlink="http://www.w3.org/1999/xlink">
    <!-- Generator: Sketch 57.1 (83088) - https://sketch.com -->
    <title>Icons/Help</title>
    <desc>Created with Sketch.</desc>
    <g id="Icons/Help" stroke="none" stroke-width="1" fill="none" fill-rule="evenodd">
        <rect id="clip" x="0" y="0" width="16" height="16"></rect>
        <path d="M10.449,5.848 C10.449,7.057 9.779,7.491 9.288,7.806 C8.775,8.138 8.368,8.4 8.368,9.675 C8.368,10.007 8.1,10.275 7.769,10.275 C7.438,10.275 7.169,10.007 7.169,9.675 C7.169,7.746 8.018,7.198 8.638,6.798 C9.07,6.519 9.249,6.404 9.249,5.848 C9.249,5.563 9.142,4.899 8.147,4.899 C7.214,4.899 6.7,5.462 6.7,6.486 C6.7,6.817 6.431,7.086 6.1,7.086 C5.769,7.086 5.5,6.817 5.5,6.486 C5.5,4.794 6.538,3.7 8.147,3.7 C9.729,3.7 10.449,4.813 10.449,5.848 L10.449,5.848 Z M7.99947538,-4.4408921e-15 C3.58843203,-4.4408921e-15 3.64153152e-13,3.58843203 3.64153152e-13,8.00052462 C3.64153152e-13,12.4126172 3.58843203,16.0010492 7.99947538,16.0010492 C12.411568,16.0010492 16,12.4126172 16,8.00052462 C16,3.58843203 12.411568,-4.4408921e-15 7.99947538,-4.4408921e-15 L7.99947538,-4.4408921e-15 Z M1.25804971,8.00052462 C1.25804971,4.28303495 4.28303495,1.25804971 7.99947538,1.25804971 C11.716965,1.25804971 14.7419503,4.28303495 14.7419503,8.00052462 C14.7419503,11.7180143 11.716965,14.7419503 7.99947538,14.7419503 C4.28303495,14.7419503 1.25804971,11.7180143 1.25804971,8.00052462 Z M8.526,11.622 C8.526,12.011 8.211,12.325 7.823,12.325 C7.435,12.325 7.12,12.011 7.12,11.622 C7.12,11.234 7.435,10.92 7.823,10.92 C8.211,10.92 8.526,11.234 8.526,11.622 L8.526,11.622 Z" id="Help" fill="#222222"></path>
    </g>
</svg>