<?xml version="1.0" encoding="UTF-8"?>
<svg width="24px" height="24px" viewBox="0 0 24 24" version="1.1" xmlns="http://www.w3.org/2000/svg" xmlns:xlink="http://www.w3.org/1999/xlink">
    <!-- Generator: Sketch 57.1 (83088) - https://sketch.com -->
    <title>Icons/Big/Cart</title>
    <desc>Created with Sketch.</desc>
    <g id="Icons/Big/Cart" stroke="none" stroke-width="1" fill="none" fill-rule="evenodd">
        <rect id="clip" x="0" y="0" width="16" height="16"></rect>
        <path d="M23.099,8.67230313 L19.06,8.67230313 L14.058,2.23230313 C13.854,1.97030313 13.476,1.92230313 13.216,2.12730313 C12.955,2.33030313 12.908,2.70730313 13.111,2.96930313 L17.541,8.67230313 L5.158,8.67230313 L9.588,2.96930313 C9.791,2.70730313 9.744,2.33030313 9.482,2.12630313 C9.22,1.92330313 8.842,1.97030313 8.64,2.23230313 L3.639,8.67230313 L-0.401,8.67230313 C-0.732,8.67230313 -1,8.94130313 -1,9.27230313 C-1,9.60330313 -0.732,9.87230313 -0.401,9.87230313 L0.928,9.87230313 L2.533,19.0953031 C2.761,20.4143031 3.9,21.3723031 5.239,21.3723031 L17.46,21.3723031 C18.799,21.3723031 19.938,20.4143031 20.167,19.0953031 L21.771,9.87230313 L23.099,9.87230313 C23.43,9.87230313 23.699,9.60330313 23.699,9.27230313 C23.699,8.94130313 23.43,8.67230313 23.099,8.67230313 L23.099,8.67230313 Z M18.985,18.8903031 C18.855,19.6323031 18.214,20.1723031 17.46,20.1723031 L5.239,20.1723031 C4.485,20.1723031 3.844,19.6323031 3.714,18.8903031 L2.145,9.87230313 L20.553,9.87230313 L18.985,18.8903031 L18.985,18.8903031 Z M10.75,17.7203031 L10.75,12.1583031 C10.75,11.8273031 11.018,11.5583031 11.349,11.5583031 C11.68,11.5583031 11.949,11.8273031 11.949,12.1583031 L11.949,17.7203031 C11.949,18.0513031 11.68,18.3203031 11.349,18.3203031 C11.018,18.3203031 10.75,18.0513031 10.75,17.7203031 L10.75,17.7203031 Z M14.75,17.7203031 L14.75,12.1583031 C14.75,11.8273031 15.018,11.5583031 15.349,11.5583031 C15.68,11.5583031 15.949,11.8273031 15.949,12.1583031 L15.949,17.7203031 C15.949,18.0513031 15.68,18.3203031 15.349,18.3203031 C15.018,18.3203031 14.75,18.0513031 14.75,17.7203031 L14.75,17.7203031 Z M6.75,17.7203031 L6.75,12.1583031 C6.75,11.8273031 7.018,11.5583031 7.349,11.5583031 C7.68,11.5583031 7.949,11.8273031 7.949,12.1583031 L7.949,17.7203031 C7.949,18.0513031 7.68,18.3203031 7.349,18.3203031 C7.018,18.3203031 6.75,18.0513031 6.75,17.7203031 L6.75,17.7203031 Z" id="Shopping-basket" fill="#222222"></path>
    </g>
</svg>