<?xml version="1.0" encoding="UTF-8"?>
<svg width="16px" height="16px" viewBox="0 0 16 16" version="1.1" xmlns="http://www.w3.org/2000/svg" xmlns:xlink="http://www.w3.org/1999/xlink">
    <!-- Generator: Sketch 57.1 (83088) - https://sketch.com -->
    <title>Icons/Small/Heart</title>
    <desc>Created with Sketch.</desc>
    <g id="Icons/Small/Heart" stroke="none" stroke-width="1" fill="none" fill-rule="evenodd">
        <rect id="clip" x="0" y="0" width="16" height="16"></rect>
        <path d="M11,0.68 C9.891,0.68 8.884,1.10387598 8,1.75287598 C7.115,1.10387598 6.11278418,0.68 5.00378418,0.68 C3.63878418,0.68 2.464,1.208 1.5,2.164 C0.527,3.126 0.001,4.31433789 0,5.67633789 C0,7.03933789 0.527,8.413 1.5,9.377 L6.586,14.5799678 C6.948,14.9389678 7.387,15.3219678 8,15.3219678 C8.482,15.3219678 8.959,15.0789678 9.457,14.5799678 C9.457,14.5799678 14.447,9.431 14.5,9.377 C15.474,8.413 16.001,7.03933789 16,5.67633789 C16,4.31433789 15.471,3.121 14.5,2.16 C13.536,1.203 12.365,0.68 11,0.68 Z M8.611,13.689001 C8.257,14.043001 8.066,14.081001 8,14.081001 C7.85,14.081001 7.637,13.892001 7.43,13.687001 L2.354,8.524 C1.61,7.787 1.2,6.809 1.2,5.768 C1.2,4.729 1.611,3.753 2.355,3.017 C3.093,2.285 4.076,1.881 5.122,1.881 C6.107,1.881 6.867,2.22765039 7.598,2.88565039 L8,3.24665039 L8.401,2.88465039 C9.132,2.22765039 9.89852148,1.881 10.8845215,1.881 C11.9315215,1.881 13.0080469,2.285 13.7480469,3.017 C14.4900469,3.752 14.799,4.729 14.8,5.768 C14.8,6.809 14.397,7.784 13.65,8.524 C13.65,8.524 8.613,13.687001 8.611,13.689001 Z M6.05211279,4.26560303 C5.47558594,3.95590771 4.50409521,3.95590771 3.88009521,4.57590771 C3.49609521,4.95490771 3.266,5.45741718 3.186,5.89241718 C3.133,6.18141718 2.881,6.38441718 2.597,6.38441718 C2.561,6.38441718 2.524,6.38141718 2.488,6.37441718 C2.162,6.31541718 1.946,6.00241718 2.006,5.67641718 C2.13,4.99441718 2.47409521,4.27690771 3.03509521,3.72290771 C3.95609521,2.80890771 5.47558594,2.6544873 6.37811279,3.11060303 C6.6580816,3.25209264 6.88211279,3.53160303 6.79211279,3.85060303 C6.70211279,4.16960303 6.33047357,4.41513124 6.05211279,4.26560303 Z" id="Heart-small" fill="#222222"></path>
    </g>
</svg>