<?xml version="1.0" encoding="UTF-8"?>
<svg width="24px" height="24px" viewBox="0 0 24 24" version="1.1" xmlns="http://www.w3.org/2000/svg" xmlns:xlink="http://www.w3.org/1999/xlink">
    <!-- Generator: Sketch 57.1 (83088) - https://sketch.com -->
    <title>Icons/Big/Lock</title>
    <desc>Created with Sketch.</desc>
    <defs>
        <path d="M17.177,8.384 L17.177,6.894 C17.177,4.196 14.982,2 12.284,2 C9.585,2 7.39,4.196 7.39,6.894 L7.39,8.384 C6.023,8.708 5,9.932 5,11.396 L5,18.383 C5,20.094 6.392,21.486 8.102,21.486 L16.466,21.486 C18.176,21.486 19.568,20.094 19.568,18.383 L19.568,11.396 C19.568,9.931 18.544,8.707 17.177,8.384 L17.177,8.384 Z M12.284,3.2 C14.321,3.2 15.978,4.857 15.978,6.894 L15.978,8.294 L8.589,8.294 L8.589,6.894 C8.589,4.857 10.246,3.2 12.284,3.2 L12.284,3.2 Z M18.369,18.383 C18.369,19.432 17.515,20.287 16.466,20.287 L8.102,20.287 C7.053,20.287 6.2,19.432 6.2,18.383 L6.2,11.396 C6.2,10.347 7.053,9.494 8.102,9.494 L16.466,9.494 C17.515,9.494 18.369,10.347 18.369,11.396 L18.369,18.383 L18.369,18.383 Z M14.261,13.168 C14.261,14.05 13.68,14.788 12.883,15.043 L12.883,17.86 C12.883,18.191 12.615,18.459 12.284,18.459 C11.953,18.459 11.684,18.191 11.684,17.86 L11.684,15.043 C10.887,14.788 10.306,14.05 10.306,13.168 C10.306,12.076 11.192,11.191 12.284,11.191 C13.376,11.191 14.261,12.076 14.261,13.168 L14.261,13.168 Z" id="path-1"></path>
    </defs>
    <g id="Icons/Big/Lock" stroke="none" stroke-width="1" fill="none" fill-rule="evenodd">
        <rect id="clip" x="0" y="0" width="16" height="16"></rect>
        <mask id="mask-2" fill="white">
            <use xlink:href="#path-1"></use>
        </mask>
        <use id="icon" fill="#222222" xlink:href="#path-1"></use>
    </g>
</svg>